<svg t="1718522617631" class="icon" viewBox="0 0 1024 1024" version="1.1" xmlns="http://www.w3.org/2000/svg" p-id="6214" width="32" height="32"><path d="M796.16 624.64c-7.970133 8.533333-17.937067 12.8-29.866667 12.8-11.946667 0-22.203733-4.266667-30.737066-12.8-7.9872-7.953067-11.9296-17.92-11.9296-29.866667 0-11.9296 3.9424-22.186667 11.9296-30.72 8.533333-7.970133 18.7904-11.946667 30.737066-11.946666 11.9296 0 21.896533 3.976533 29.866667 11.946666 8.533333 8.533333 12.8 18.7904 12.8 30.72 0 11.946667-4.266667 21.9136-12.8 29.866667z m-168.96-59.733333c8.533333 8.533333 12.8 18.807467 12.8 30.737066s-4.266667 21.896533-12.8 29.866667c-7.970133 8.533333-17.92 12.8-29.866667 12.8s-22.186667-4.266667-30.72-12.8c-7.9872-7.970133-11.946667-17.937067-11.946666-29.866667s3.959467-22.203733 11.946666-30.737066c8.533333-7.953067 18.773333-11.9296 30.72-11.9296s21.896533 3.976533 29.866667 11.9296zM556.373333 768c0-11.946667 3.976533-22.186667 11.946667-30.72 8.533333-7.9872 18.7904-11.946667 30.72-11.946667 11.946667 0 21.896533 3.959467 29.866667 11.946667 8.533333 8.533333 12.8 18.773333 12.8 30.72s-4.266667 21.896533-12.8 29.866667c-7.970133 8.533333-17.92 12.8-29.866667 12.8-11.9296 0-22.186667-4.266667-30.72-12.8-7.970133-7.970133-11.946667-17.92-11.946667-29.866667z m167.253334-2.56c0-11.9296 3.9424-22.186667 11.9296-30.72 8.533333-7.970133 18.7904-11.946667 30.737066-11.946667 11.9296 0 21.896533 3.976533 29.866667 11.946667 8.533333 8.533333 12.8 18.7904 12.8 30.72 0 11.946667-4.266667 21.9136-12.8 29.866667-7.970133 8.533333-17.937067 12.8-29.866667 12.8-11.946667 0-22.203733-4.266667-30.737066-12.8-7.953067-7.953067-11.9296-17.92-11.9296-29.866667z" p-id="6215" fill="#1296db"></path><path d="M682.666667 955.733333c-74.922667 0-139.8272-26.948267-192.9728-80.093866-51.438933-51.438933-78.336-113.92-80.008534-185.821867l-75.502933-75.502933c-71.8848-1.672533-134.382933-28.5696-185.821867-80.008534C95.214933 481.160533 68.266667 416.238933 68.266667 341.333333s26.948267-139.8272 80.093866-192.9728S266.427733 68.266667 341.333333 68.266667s139.8272 26.948267 192.9728 80.093866c3.805867 3.805867 7.3216 7.611733 10.461867 11.4176l2.5088 2.423467 102.877867 102.894933 63.0272-63.744c3.208533-3.2256 7.543467-5.051733 12.0832-5.0688h0.0512c4.539733 0 8.874667 1.792 12.066133 5.000534L768 231.867733l158.600533-158.600533a17.0496 17.0496 0 1 1 24.132267 24.132267L792.132267 256l30.600533 30.600533a17.066667 17.066667 0 0 1 0.068267 24.064l-63.163734 63.880534 105.813334 105.796266c2.6112 2.0992 6.417067 5.563733 10.205866 9.352534C928.785067 542.839467 955.733333 607.744 955.733333 682.666667s-26.948267 139.8272-80.093866 192.9728C822.493867 928.785067 757.589333 955.733333 682.666667 955.733333zM341.333333 102.4c-66.4576 0-121.668267 22.920533-168.840533 70.0928S102.4 274.875733 102.4 341.333333s22.920533 121.668267 70.0928 168.840534C219.665067 557.329067 274.875733 580.266667 341.333333 580.266667c4.522667 0 8.874667 1.792 12.066134 5.000533l85.333333 85.333333A16.9984 16.9984 0 0 1 443.733333 682.666667c0 66.4576 22.920533 121.668267 70.0928 168.840533C560.981333 898.6624 616.209067 921.6 682.666667 921.6s121.685333-22.9376 168.840533-70.0928C898.6624 804.352 921.6 749.124267 921.6 682.666667s-22.9376-121.685333-70.0928-168.840534a134.656 134.656 0 0 0-9.096533-8.3456l-4.5056-4.420266-114.397867-114.3808-203.9808-203.9808c-3.549867-4.164267-6.331733-7.168-9.352533-10.205867C463.0016 125.320533 407.790933 102.4 341.333333 102.4z m332.970667 186.811733l61.201067 61.201067 51.0976-51.677867-61.201067-61.201066-51.0976 51.677866zM599.04 827.733333a58.606933 58.606933 0 0 1-42.786133-17.800533c-11.246933-11.246933-16.9472-25.344-16.9472-41.9328 0-16.349867 5.563733-30.600533 16.5376-42.359467 12.561067-11.810133 26.811733-17.373867 43.195733-17.373866 16.605867 0 30.72 5.700267 41.949867 16.964266A58.589867 58.589867 0 0 1 658.773333 768c0 16.571733-6.2976 31.214933-18.210133 42.3424-10.308267 11.093333-24.968533 17.390933-41.5232 17.390933z m0-85.333333c-7.645867 0-13.704533 2.338133-19.0464 7.355733-4.232533 4.539733-6.5536 10.615467-6.5536 18.244267 0 7.406933 2.218667 13.056 6.946133 17.800533a24.917333 24.917333 0 0 0 18.653867 7.799467c7.2704 0 12.629333-2.286933 17.390933-7.389867 5.922133-5.5808 8.209067-10.939733 8.209067-18.210133 0-7.406933-2.491733-13.329067-7.799467-18.653867-4.744533-4.744533-10.3936-6.946133-17.800533-6.946133z m167.253333 82.773333a58.641067 58.641067 0 0 1-42.8032-17.800533c-11.229867-11.2128-16.930133-25.326933-16.930133-41.9328 0-16.384 5.563733-30.651733 16.5376-42.376533 12.578133-11.776 26.8288-17.3568 43.195733-17.3568 16.5888 0 30.685867 5.700267 41.9328 16.9472A58.5728 58.5728 0 0 1 826.026667 765.44c0 16.605867-6.2976 31.232-18.2272 42.3424-10.2912 11.076267-24.9344 17.390933-41.506134 17.390933z m0-85.333333c-7.645867 0-13.7216 2.338133-19.080533 7.355733-4.181333 4.539733-6.519467 10.5984-6.519467 18.244267 0 7.424 2.2016 13.073067 6.912 17.783467 10.496 10.478933 26.504533 10.666667 36.061867 0.426666 5.888-5.512533 8.209067-11.042133 8.209067-18.210133 0-7.406933-2.491733-13.329067-7.799467-18.653867-4.727467-4.744533-10.376533-6.946133-17.783467-6.946133zM597.333333 655.36a58.606933 58.606933 0 0 1-42.786133-17.800533c-11.246933-11.2128-16.9472-25.326933-16.9472-41.9328 0-16.384 5.563733-30.651733 16.554667-42.3936 12.5952-11.776 26.845867-17.339733 43.178666-17.339734 16.571733 0 30.6688 5.700267 41.915734 16.913067l0.017066 0.017067A59.357867 59.357867 0 0 1 657.066667 595.626667c0 16.571733-6.2976 31.214933-18.210134 42.3424-10.308267 11.093333-24.951467 17.390933-41.5232 17.390933z m0-85.333333c-7.6288 0-13.704533 2.338133-19.080533 7.355733-4.181333 4.539733-6.519467 10.5984-6.519467 18.244267 0 7.424 2.2016 13.073067 6.929067 17.783466 5.341867 5.341867 11.264 7.816533 18.670933 7.816534 7.2704 0 12.629333-2.286933 17.390934-7.389867 5.853867-5.512533 8.209067-11.042133 8.209066-18.210133 0-7.406933-2.491733-13.329067-7.799466-18.653867-4.727467-4.744533-10.3936-6.946133-17.800534-6.946133z m168.96 84.48a58.641067 58.641067 0 0 1-42.8032-17.800534c-11.229867-11.178667-16.930133-25.2928-16.930133-41.9328 0-16.384 5.563733-30.651733 16.5376-42.376533 12.578133-11.776 26.8288-17.3568 43.195733-17.3568 16.5888 0 30.685867 5.700267 41.9328 16.9472A58.5728 58.5728 0 0 1 826.026667 594.773333c0 16.401067-6.144 30.890667-17.800534 41.949867A56.558933 56.558933 0 0 1 766.293333 654.506667z m0-85.333334c-7.645867 0-13.7216 2.338133-19.080533 7.355734-4.181333 4.539733-6.519467 10.5984-6.519467 18.244266 0 7.441067 2.2016 13.090133 6.912 17.7664 5.3248 5.341867 11.264 7.8336 18.688 7.8336 7.168 0 12.680533-2.3552 17.390934-7.389866l0.853333-0.836267c5.034667-4.676267 7.3728-10.222933 7.3728-17.390933 0-7.406933-2.491733-13.329067-7.799467-18.653867-4.7616-4.727467-10.410667-6.929067-17.8176-6.929067zM426.666667 443.733333a17.015467 17.015467 0 0 1-12.066134-5.000533L341.333333 365.4656l-73.2672 73.2672a17.0496 17.0496 0 1 1-24.132266-24.132267L317.201067 341.333333l-73.2672-73.2672a17.0496 17.0496 0 1 1 24.132266-24.132266L341.333333 317.201067l73.2672-73.2672a17.0496 17.0496 0 1 1 24.132267 24.132266L365.4656 341.333333l73.2672 73.2672A17.0496 17.0496 0 0 1 426.666667 443.733333z" p-id="6216" fill="#1296db"></path></svg>